<?xml version="1.0" standalone="no"?>
<!DOCTYPE svg PUBLIC "-//W3C//DTD SVG 20010904//EN"
 "http://www.w3.org/TR/2001/REC-SVG-20010904/DTD/svg10.dtd">
<svg version="1.0" xmlns="http://www.w3.org/2000/svg"
 width="2000.000000pt" height="1500.000000pt" viewBox="0 0 2000.000000 1500.000000"
 preserveAspectRatio="xMidYMid meet">

<g transform="translate(0.000000,1500.000000) scale(0.100000,-0.100000)"
fill="#000000" stroke="none">
<path d="M0 7500 l0 -7500 10000 0 10000 0 0 7500 0 7500 -10000 0 -10000 0 0
-7500z m4545 1812 c383 -75 682 -219 891 -427 72 -71 99 -106 130 -169 36 -74
39 -86 39 -165 0 -69 -4 -94 -22 -126 -42 -80 -108 -119 -198 -118 -78 0 -120
16 -365 133 -426 204 -566 249 -766 250 -132 0 -195 -19 -250 -74 -47 -46 -64
-94 -64 -176 1 -164 127 -270 673 -564 446 -240 602 -338 773 -484 245 -208
343 -463 305 -791 -50 -428 -282 -702 -714 -840 -234 -75 -409 -94 -794 -88
-317 4 -388 13 -624 72 -331 84 -666 261 -860 455 -70 70 -95 104 -130 175
-42 84 -44 93 -44 174 0 69 5 94 22 127 47 88 119 136 223 149 78 9 207 -19
510 -114 416 -130 537 -156 730 -156 149 0 192 13 234 69 33 43 29 140 -7 194
-55 84 -90 106 -622 392 -539 290 -587 321 -728 470 -250 262 -351 557 -291
847 74 361 393 638 864 752 219 53 300 60 660 56 274 -2 341 -6 425 -23z
m3618 -31 c422 -85 818 -367 1040 -740 143 -241 244 -581 277 -936 22 -239 8
-897 -26 -1195 -38 -341 -116 -545 -237 -627 -102 -69 -142 -78 -342 -77 -150
1 -193 4 -257 22 -151 41 -237 106 -290 219 -42 89 -57 191 -58 386 l0 167
-435 0 -435 0 0 -167 c-1 -195 -16 -297 -58 -387 -80 -171 -239 -241 -552
-241 -195 0 -246 12 -337 79 -139 102 -194 253 -238 644 -42 387 -45 1077 -6
1334 74 479 249 832 558 1129 154 147 286 227 513 312 116 43 225 72 345 92
131 21 397 14 538 -14z m2728 0 c73 -23 151 -71 249 -151 36 -29 374 -362 753
-739 l687 -685 0 594 c0 611 4 675 41 775 61 163 252 255 467 227 198 -27 291
-106 328 -281 11 -55 14 -303 14 -1483 0 -997 -3 -1433 -11 -1470 -51 -242
-255 -378 -549 -365 -126 5 -182 24 -327 109 -115 68 -262 191 -497 413 -88
84 -377 358 -641 608 l-480 454 -6 -651 c-4 -463 -9 -664 -17 -694 -47 -169
-166 -242 -393 -242 -169 0 -298 49 -366 138 -18 24 -43 76 -55 115 l-23 72 0
1410 c0 1349 1 1413 19 1480 55 207 186 333 391 379 101 23 326 16 416 -13z
m6072 14 c185 -39 305 -138 388 -320 44 -99 55 -179 41 -326 -14 -152 -55
-284 -113 -361 -91 -122 -284 -308 -1036 -1000 l-795 -733 859 -6 c597 -3 870
-9 898 -17 209 -59 283 -174 272 -422 -9 -207 -72 -302 -237 -354 -160 -51
-161 -51 -1425 -51 l-1180 0 -67 26 c-107 42 -177 88 -263 174 -90 91 -145
177 -178 280 -19 60 -22 92 -21 220 0 160 11 233 50 329 36 88 142 241 252
362 55 60 406 388 781 729 l681 620 -637 6 c-594 5 -644 7 -728 26 -178 41
-277 108 -331 226 -27 58 -29 70 -29 192 0 105 4 140 20 184 41 112 141 186
293 216 103 20 2408 21 2505 0z"/>
<path d="M7704 8436 c-150 -38 -232 -124 -279 -296 -16 -57 -19 -119 -22 -487
l-5 -423 437 0 436 0 -3 423 c-4 362 -7 430 -22 482 -44 155 -113 247 -214
286 -71 27 -249 36 -328 15z"/>
</g>
</svg>
